HIERARCHY
ROOT joint_Root
{
	OFFSET 0.0 0.0 0.0
	CHANNELS 6 Xposition Yposition Zposition Zrotation Xrotation Yrotation 
	JOINT Hips
	{
		OFFSET 4.5925 91.4895 -427.239
		CHANNELS 6 Xposition Yposition Zposition Zrotation Xrotation Yrotation 
		JOINT Spine
		{
			OFFSET 15.7357 0.0 0.0
			CHANNELS 6 Xposition Yposition Zposition Zrotation Xrotation Yrotation 
			JOINT Chest
			{
				OFFSET 8.98455 -0.406207 0.0
				CHANNELS 6 Xposition Yposition Zposition Zrotation Xrotation Yrotation 
				JOINT Neck
				{
					OFFSET 16.3773 0.0 0.0
					CHANNELS 6 Xposition Yposition Zposition Zrotation Xrotation Yrotation 
					JOINT Head
					{
						OFFSET 6.45672 0.0 0.0
						CHANNELS 6 Xposition Yposition Zposition Zrotation Xrotation Yrotation 
						End Site
						{
							OFFSET 0.0 0.0 0.0
						}
					}
				}
				JOINT Shoulder_L
				{
					OFFSET 12.9942 -0.242716 4.98039
					CHANNELS 6 Xposition Yposition Zposition Zrotation Xrotation Yrotation 
					JOINT UpperArm_L
					{
						OFFSET 5.34809 0.0 0.0
						CHANNELS 6 Xposition Yposition Zposition Zrotation Xrotation Yrotation 
						JOINT LowerArm_L
						{
							OFFSET 24.3286 1.87007e-05 0.0
							CHANNELS 6 Xposition Yposition Zposition Zrotation Xrotation Yrotation 
							JOINT Hand_L
							{
								OFFSET 22.2916 0.0 0.0
								CHANNELS 6 Xposition Yposition Zposition Zrotation Xrotation Yrotation 
								End Site
								{
									OFFSET 0.0 0.0 0.0
								}
							}
						}
					}
				}
				JOINT Shoulder_R
				{
					OFFSET 12.9945 -0.242716 -4.98039
					CHANNELS 6 Xposition Yposition Zposition Zrotation Xrotation Yrotation 
					JOINT UpperArm_R
					{
						OFFSET -5.34813 0.0 0.0
						CHANNELS 6 Xposition Yposition Zposition Zrotation Xrotation Yrotation 
						JOINT LowerArm_R
						{
							OFFSET -24.3289 0.000322201 0.0
							CHANNELS 6 Xposition Yposition Zposition Zrotation Xrotation Yrotation 
							JOINT Hand_R
							{
								OFFSET -22.2915 -0.000108084 0.0
								CHANNELS 6 Xposition Yposition Zposition Zrotation Xrotation Yrotation 
								End Site
								{
									OFFSET 0.0 0.0 0.0
								}
							}
						}
					}
				}
			}
		}
		JOINT UpperLeg_L
		{
			OFFSET -2.19248 -6.46944 0.0
			CHANNELS 6 Xposition Yposition Zposition Zrotation Xrotation Yrotation 
			JOINT LowerLeg_L
			{
				OFFSET 39.0811 0.0 -1.23785e-05
				CHANNELS 6 Xposition Yposition Zposition Zrotation Xrotation Yrotation 
				JOINT Foot_L
				{
					OFFSET 40.9854 0.0 -1.26872e-05
					CHANNELS 6 Xposition Yposition Zposition Zrotation Xrotation Yrotation 
					JOINT Toes_L
					{
						OFFSET 11.7543 0.0 0.0
						CHANNELS 6 Xposition Yposition Zposition Zrotation Xrotation Yrotation 
						End Site
						{
							OFFSET 0.0 0.0 0.0
						}
					}
				}
			}
		}
		JOINT UpperLeg_R
		{
			OFFSET -2.19251 6.46944 0.0
			CHANNELS 6 Xposition Yposition Zposition Zrotation Xrotation Yrotation 
			JOINT LowerLeg_R
			{
				OFFSET -39.0811 -0.00228153 -0.0401928
				CHANNELS 6 Xposition Yposition Zposition Zrotation Xrotation Yrotation 
				JOINT Foot_R
				{
					OFFSET -40.9854 0.0 0.0
					CHANNELS 6 Xposition Yposition Zposition Zrotation Xrotation Yrotation 
					JOINT Toes_R
					{
						OFFSET -11.7543 0.0 0.0
						CHANNELS 6 Xposition Yposition Zposition Zrotation Xrotation Yrotation 
						End Site
						{
							OFFSET 0.0 0.0 0.0
						}
					}
				}
			}
		}
	}
}
MOTION
Frames:	9
Frame Time:	0.0333333
0.000000 0.000000 0.000000 0.000000 0.000000 -0.000000 -0.215283 92.172000 0.155475 88.261100 -2.257640 2.849310 15.735700 0.000005 -0.000001 78.649000 87.104100 -78.695200 8.984550 -0.406207 -0.000000 -2.088100 -1.135660 -0.113168 16.377300 -0.000001 -0.000001 4.879850 -2.530940 1.915580 6.456720 -0.000001 -0.000000 1.627050 -2.058310 2.405280 12.994200 -0.242716 4.980390 -82.946400 -12.060400 -59.366500 5.348090 -0.000007 -0.000001 -66.034800 -63.612200 -105.834000 24.328600 0.000019 0.000005 6.845340 5.334480 -52.244100 22.291600 -0.000001 0.000005 17.433500 5.366590 -1.881260 12.994500 -0.242716 -4.980390 94.980100 -11.333000 -66.086200 -5.348130 -0.000001 -0.000004 -41.356100 -68.751200 -81.479500 -24.328900 0.000322 -0.000009 -6.091250 -5.150810 -49.921000 -22.291500 -0.000108 -0.000004 22.699900 5.545340 -8.487660 -2.192480 -6.469440 -0.000000 -174.886000 -14.160600 -3.975990 39.081100 -0.000007 -0.000012 -0.112162 0.255894 23.668600 40.985400 -0.000006 -0.000013 0.593637 7.922450 -66.718800 11.754300 -0.000000 0.000003 -0.000151 -0.001464 -16.633200 -2.192510 6.469440 -0.000001 177.277000 22.938700 177.246000 -39.081100 -0.002282 -0.040193 0.012754 -0.023008 22.300900 -40.985400 0.000008 0.000006 5.793210 15.269600 -66.756000 -11.754300 -0.000006 -0.000006 -0.001886 -0.027277 -17.682200
0.000000 0.000000 0.000000 0.000000 0.000000 -0.000000 -0.201802 92.239100 -0.038674 88.257000 -2.255920 2.724410 15.735700 0.000005 -0.000001 79.399400 87.000600 -79.454500 8.984550 -0.406207 -0.000000 -1.870180 -1.098660 -0.128129 16.377300 -0.000001 -0.000001 4.615560 -2.487650 1.888270 6.456720 -0.000001 -0.000000 1.150570 -2.062940 2.549920 12.994200 -0.242716 4.980390 -83.117000 -11.880300 -59.614400 5.348090 -0.000007 -0.000001 -65.162500 -63.430200 -103.628000 24.328600 0.000019 0.000005 6.683270 4.844750 -54.217700 22.291600 -0.000001 0.000005 17.270500 5.365900 -1.860330 12.994500 -0.242716 -4.980390 94.821400 -11.112700 -66.364300 -5.348130 -0.000001 -0.000004 -40.715600 -68.580400 -79.973800 -24.328900 0.000322 -0.000009 -6.209900 -5.036160 -51.098900 -22.291500 -0.000108 -0.000004 22.404100 5.532980 -7.926530 -2.192480 -6.469440 -0.000000 -174.954000 -14.207100 -4.072490 39.081100 -0.000007 -0.000012 -0.106946 0.248085 23.320200 40.985400 -0.000006 -0.000013 0.592523 7.937070 -66.408100 11.754300 -0.000000 0.000003 -0.000135 -0.001326 -16.628100 -2.192510 6.469440 -0.000001 177.312000 23.369800 177.240000 -39.081100 -0.002282 -0.040193 0.012266 -0.022363 21.808100 -40.985400 0.000008 0.000006 5.750260 15.737100 -66.475000 -11.754300 -0.000006 -0.000006 -0.001868 -0.027057 -17.673300
0.000000 0.000000 0.000000 0.000000 0.000000 -0.000000 -0.207752 92.288200 -0.202862 88.227900 -2.141680 2.703950 15.735700 0.000005 -0.000001 79.457800 86.862200 -79.522400 8.984550 -0.406207 -0.000000 -1.597150 -1.142630 -0.145171 16.377300 -0.000001 -0.000001 4.370470 -2.538390 1.839540 6.456720 -0.000001 -0.000000 0.732865 -2.079850 2.675850 12.994200 -0.242716 4.980390 -83.382400 -11.607900 -60.033400 5.348090 -0.000007 -0.000001 -61.938400 -63.094200 -98.385800 24.328600 0.000019 0.000005 6.537380 4.229850 -57.234700 22.291600 -0.000001 0.000005 17.046300 5.367150 -1.899060 12.994500 -0.242716 -4.980390 94.567300 -10.742400 -66.801200 -5.348130 -0.000001 -0.000004 -38.880800 -67.680600 -76.537100 -24.328900 0.000322 -0.000009 -6.325780 -4.758770 -53.185400 -22.291500 -0.000108 -0.000004 22.409600 5.516300 -7.205260 -2.192480 -6.469440 -0.000000 -174.937000 -14.216900 -4.120700 39.081100 -0.000007 -0.000012 -0.105569 0.247546 23.096600 40.985400 -0.000006 -0.000013 0.609960 8.100230 -66.167700 11.754300 -0.000000 0.000003 -0.000143 -0.001393 -16.630600 -2.192510 6.469440 -0.000001 177.362000 23.770600 177.320000 -39.081100 -0.002282 -0.040193 0.012226 -0.022684 21.439000 -40.985400 0.000008 0.000006 5.859620 15.995100 -66.311600 -11.754300 -0.000006 -0.000006 -0.002016 -0.028914 -17.748800
0.000000 0.000000 0.000000 0.000000 0.000000 -0.000000 -0.228377 92.330600 -0.359511 88.205600 -1.939770 2.735330 15.735700 0.000005 -0.000001 79.321300 86.695400 -79.382000 8.984550 -0.406207 -0.000000 -1.271930 -1.219660 -0.134795 16.377300 -0.000001 -0.000001 3.969740 -2.547180 1.782310 6.456720 -0.000001 -0.000000 0.257977 -2.128000 2.658840 12.994200 -0.242716 4.980390 -83.894500 -10.940200 -60.593700 5.348090 -0.000007 -0.000001 -56.479100 -62.191900 -90.814400 24.328600 0.000019 0.000005 6.110190 3.525720 -60.125300 22.291600 -0.000001 0.000005 16.501800 5.373020 -2.080780 12.994500 -0.242716 -4.980390 94.176100 -10.055300 -67.305800 -5.348130 -0.000001 -0.000004 -35.814300 -65.993000 -71.432700 -24.328900 0.000322 -0.000009 -6.326680 -4.276190 -56.073900 -22.291500 -0.000108 -0.000004 22.424000 5.500290 -6.544680 -2.192480 -6.469440 -0.000000 -174.946000 -14.089000 -4.154060 39.081100 -0.000007 -0.000012 -0.099300 0.234868 22.918200 40.985400 -0.000006 -0.000013 0.608708 8.122700 -65.942600 11.754300 -0.000000 0.000003 -0.000146 -0.001419 -16.631500 -2.192510 6.469440 -0.000001 177.391000 24.092500 177.496000 -39.081100 -0.002282 -0.040193 0.011513 -0.021330 21.014700 -40.985400 0.000008 0.000006 5.778820 16.163900 -66.126900 -11.754300 -0.000006 -0.000006 -0.001686 -0.024711 -17.577900
0.000000 0.000000 0.000000 0.000000 0.000000 -0.000000 -0.259287 92.338300 -0.506599 88.149500 -1.779210 2.839220 15.735700 0.000005 -0.000001 79.276300 86.520900 -79.319000 8.984550 -0.406207 -0.000000 -0.929742 -1.291230 -0.095835 16.377300 -0.000001 -0.000001 3.623780 -2.450020 1.650530 6.456720 -0.000001 -0.000000 -0.259232 -2.219590 2.770350 12.994200 -0.242716 4.980390 -84.524300 -10.030300 -61.172100 5.348090 -0.000007 -0.000001 -50.281000 -60.029700 -82.146400 24.328600 0.000019 0.000005 5.684370 2.961630 -62.567800 22.291600 -0.000001 0.000005 16.025700 5.377620 -2.223520 12.994500 -0.242716 -4.980390 93.608600 -8.982570 -68.005300 -5.348130 -0.000001 -0.000004 -32.215600 -63.288700 -65.205100 -24.328900 0.000322 -0.000009 -6.129890 -3.555280 -59.993900 -22.291500 -0.000108 -0.000004 22.267700 5.483300 -5.874950 -2.192480 -6.469440 -0.000000 -174.862000 -14.006700 -4.215000 39.081100 -0.000007 -0.000012 -0.098311 0.231719 22.990000 40.985400 -0.000006 -0.000013 0.623604 8.254050 -65.858800 11.754300 -0.000000 0.000003 -0.000152 -0.001472 -16.633500 -2.192510 6.469440 -0.000001 177.420000 24.448800 177.734000 -39.081100 -0.002282 -0.040193 0.011369 -0.021306 20.695200 -40.985400 0.000008 0.000006 5.911110 16.330200 -66.202500 -11.754300 -0.000006 -0.000006 -0.001791 -0.026069 -17.633100
0.000000 0.000000 0.000000 0.000000 0.000000 -0.000000 -0.295413 92.365700 -0.632034 88.143800 -1.601400 3.011710 15.735700 0.000005 -0.000001 79.570100 86.364100 -79.602600 8.984550 -0.406207 -0.000000 -0.614742 -1.313770 -0.072061 16.377300 -0.000001 -0.000001 3.313030 -2.389720 1.419860 6.456720 -0.000001 -0.000000 -0.700010 -2.400100 2.895590 12.994200 -0.242716 4.980390 -85.265800 -8.951310 -61.976100 5.348090 -0.000007 -0.000001 -44.469900 -56.317400 -73.135400 24.328600 0.000019 0.000005 5.892560 2.783940 -64.797900 22.291600 -0.000001 0.000005 15.698800 5.373870 -2.106700 12.994500 -0.242716 -4.980390 92.965700 -7.638770 -68.707900 -5.348130 -0.000001 -0.000004 -29.488900 -59.298700 -59.003400 -24.328900 0.000322 -0.000009 -5.740420 -2.709420 -64.813400 -22.291500 -0.000108 -0.000004 21.925100 5.469630 -5.355950 -2.192480 -6.469440 -0.000000 -174.796000 -13.998700 -4.094470 39.081100 -0.000007 -0.000012 -0.096676 0.229240 22.866400 40.985400 -0.000006 -0.000013 0.623485 8.423430 -65.686600 11.754300 -0.000000 0.000003 -0.000156 -0.001504 -16.634700 -2.192510 6.469440 -0.000001 177.332000 24.969100 178.080000 -39.081100 -0.002282 -0.040193 0.010472 -0.019299 20.331200 -40.985400 0.000008 0.000006 5.893130 16.687300 -66.130000 -11.754300 -0.000006 -0.000006 -0.001535 -0.022737 -17.497600
0.000000 0.000000 0.000000 0.000000 0.000000 -0.000000 -0.322767 92.378000 -0.741083 88.153400 -1.539840 3.179490 15.735700 0.000005 -0.000001 79.488600 86.208400 -79.501400 8.984550 -0.406207 -0.000000 -0.310106 -1.382200 -0.029488 16.377300 -0.000001 -0.000001 2.926420 -2.263330 1.193630 6.456720 -0.000001 -0.000000 -1.058700 -2.463490 2.885830 12.994200 -0.242716 4.980390 -86.086800 -7.597610 -62.644600 5.348090 -0.000007 -0.000001 -40.483100 -50.999800 -65.123400 24.328600 0.000019 0.000005 6.636840 2.899980 -66.499000 22.291600 -0.000001 0.000005 15.641400 5.374510 -2.126590 12.994500 -0.242716 -4.980390 92.224300 -6.100890 -69.925800 -5.348130 -0.000001 -0.000004 -27.456700 -54.216200 -52.452400 -24.328900 0.000322 -0.000009 -5.620630 -2.042760 -70.084600 -22.291500 -0.000108 -0.000004 21.600700 5.462330 -5.086390 -2.192480 -6.469440 -0.000000 -174.747000 -14.065100 -3.988100 39.081100 -0.000007 -0.000012 -0.095999 0.228113 22.823400 40.985400 -0.000006 -0.000013 0.633099 8.564410 -65.578800 11.754300 -0.000000 0.000003 -0.000156 -0.001501 -16.634600 -2.192510 6.469440 -0.000001 177.118000 25.599100 178.334000 -39.081100 -0.002282 -0.040193 -0.005182 0.023168 20.154700 -40.985400 0.000008 0.000006 5.478210 17.395800 -65.896200 -11.754300 -0.000006 -0.000006 -0.001484 -0.022063 -17.470300
0.000000 0.000000 0.000000 0.000000 0.000000 -0.000000 -0.350915 92.404500 -0.848762 88.206000 -1.615540 3.279020 15.735700 0.000005 -0.000001 79.950600 86.085900 -79.974100 8.984550 -0.406207 -0.000000 -0.058031 -1.364060 -0.047638 16.377300 -0.000001 -0.000001 2.532120 -2.153470 0.997751 6.456720 -0.000001 -0.000000 -1.405360 -2.486210 2.973560 12.994200 -0.242716 4.980390 -86.833600 -6.332540 -63.364400 5.348090 -0.000007 -0.000001 -38.263000 -44.218800 -57.621500 24.328600 0.000019 0.000005 7.931220 3.293580 -67.588900 22.291600 -0.000001 0.000005 15.948600 5.364700 -1.824070 12.994500 -0.242716 -4.980390 91.449600 -4.285600 -71.294300 -5.348130 -0.000001 -0.000004 -26.138600 -47.759300 -45.778100 -24.328900 0.000322 -0.000009 -6.104690 -1.666420 -74.783300 -22.291500 -0.000108 -0.000004 21.400300 5.464280 -5.157950 -2.192480 -6.469440 -0.000000 -174.762000 -14.264100 -3.853350 39.081100 -0.000007 -0.000012 -0.090837 0.217833 22.636400 40.985400 -0.000006 -0.000013 0.636496 8.677830 -65.414700 11.754300 -0.000000 0.000003 -0.000158 -0.001520 -16.635300 -2.192510 6.469440 -0.000001 176.942000 25.900800 178.503000 -39.081100 -0.002282 -0.040193 -0.019419 0.062736 19.925000 -40.985400 0.000008 0.000006 4.965440 17.891300 -65.554800 -11.754300 -0.000006 -0.000006 -0.001311 -0.019729 -17.375400
0.000000 0.000000 0.000000 0.000000 0.000000 -0.000000 -0.384286 92.419500 -0.963155 88.244000 -1.713880 3.257420 15.735700 0.000005 -0.000001 80.149500 85.958100 -80.165900 8.984550 -0.406207 -0.000000 0.198536 -1.381490 -0.030459 16.377300 -0.000001 -0.000001 2.011900 -2.009260 0.881876 6.456720 -0.000001 -0.000000 -1.892930 -2.219660 2.864710 12.994200 -0.242716 4.980390 -87.601900 -5.038480 -64.507200 5.348090 -0.000007 -0.000001 -37.326300 -36.754000 -50.076200 24.328600 0.000019 0.000005 9.510380 3.944450 -67.676600 22.291600 -0.000001 0.000005 15.797500 5.363930 -1.799700 12.994500 -0.242716 -4.980390 90.667300 -2.145760 -72.727800 -5.348130 -0.000001 -0.000004 -25.408100 -40.006600 -39.563200 -24.328900 0.000322 -0.000009 -7.159550 -1.560140 -77.766300 -22.291500 -0.000108 -0.000004 21.383400 5.467810 -5.288840 -2.192480 -6.469440 -0.000000 -174.786000 -14.411900 -3.898890 39.081100 -0.000007 -0.000012 -0.091196 0.219684 22.544600 40.985400 -0.000006 -0.000013 0.618537 8.717940 -65.287000 11.754300 -0.000000 0.000003 -0.000161 -0.001542 -16.636100 -2.192510 6.469440 -0.000001 176.848000 26.236500 178.463000 -39.081100 -0.002282 -0.040193 -0.034558 0.105263 19.791800 -40.985400 0.000008 0.000006 4.493400 18.438600 -65.241200 -11.754300 -0.000006 -0.000006 -0.001406 -0.021016 -17.427700
